<?xml version="1.0" encoding="utf-8"?>
<!-- Generator: Adobe Illustrator 26.2.1, SVG Export Plug-In . SVG Version: 6.00 Build 0)  -->
<svg version="1.1" id="Laag_1" xmlns="http://www.w3.org/2000/svg" xmlns:xlink="http://www.w3.org/1999/xlink" x="0px" y="0px"
	 viewBox="0 0 283.46 283.46" style="enable-background:new 0 0 283.46 283.46;" xml:space="preserve">
<style type="text/css">
	.st0{fill:#2682C0;}
	.st1{fill:#D55D33;}
</style>
<g>
	<g>
		<path class="st0" d="M76.1,128.79c1.83,0,3.31,1.48,3.31,3.31s-1.48,3.31-3.31,3.31c-1.83,0-3.31-1.48-3.31-3.31
			S74.27,128.79,76.1,128.79 M76.1,137c2.7,0,4.9-2.19,4.9-4.9c0-2.7-2.19-4.9-4.9-4.9c-2.7,0-4.89,2.19-4.89,4.9
			C71.2,134.8,73.4,137,76.1,137"/>
		<path class="st0" d="M61.57,132.1l-5.53,18.69l-5.53-18.69h-8.39l9.26,27h9.07l7.77-22.75c-0.68-1.26-1.07-2.71-1.07-4.25H61.57z"
			/>
		<path class="st0" d="M72.38,140.23v18.87h7.44v-18.87c-1.13,0.52-2.39,0.82-3.72,0.82C74.77,141.05,73.52,140.75,72.38,140.23"/>
		<path class="st1" d="M76.1,130.18c-1.06,0-1.92,0.86-1.92,1.92c0,1.06,0.86,1.92,1.92,1.92c1.06,0,1.92-0.86,1.92-1.92
			C78.02,131.04,77.16,130.18,76.1,130.18"/>
		<path class="st1" d="M76.1,138.42c-3.48,0-6.32-2.83-6.32-6.31c0-3.48,2.83-6.31,6.32-6.31c3.48,0,6.31,2.83,6.31,6.31
			C82.41,135.58,79.58,138.42,76.1,138.42 M76.1,124.44c-4.23,0-7.66,3.44-7.66,7.66c0,4.23,3.44,7.66,7.66,7.66
			c4.22,0,7.66-3.44,7.66-7.66C83.76,127.88,80.32,124.44,76.1,124.44"/>
	</g>
	<polygon class="st1" points="87.28,159.09 91.19,159.09 91.19,149.56 102.41,149.56 102.41,145.96 91.19,145.96 91.19,138.46 
		103.79,138.46 103.79,134.82 87.28,134.82 	"/>
	<g>
		<path class="st1" d="M118.04,150.11c0,3.54-1.78,5.57-4.89,5.57c-2.8,0-4.22-1.65-4.22-4.89v-10.25h-3.78v10.62
			c0,5.17,2.79,8.13,7.65,8.13c2.16,0,4.07-0.8,5.4-2.23v2.03h3.62v-18.55h-3.78V150.11z"/>
	</g>
	<rect x="125.68" y="133.4" class="st1" width="3.78" height="25.68"/>
	<g>
		<path class="st1" d="M139.43,136.57c0.76,0,1.52,0.27,2.14,0.76l0.38,0.3l1.19-3.15l-0.2-0.16c-0.88-0.72-2.19-1.12-3.68-1.12
			c-3.67,0-5.95,2.34-5.95,6.11v19.77h3.78v-15.18h4.89v-3.37h-4.95v-1.19C137.03,137.48,137.82,136.57,139.43,136.57"/>
	</g>
	<rect x="152.58" y="133.4" class="st1" width="3.78" height="25.68"/>
	<g>
		<path class="st1" d="M181.86,140.37c-2.68,0-5.06,1.1-6.49,2.98c-1.2-1.93-3.27-2.98-5.91-2.98c-2.27,0-4.18,0.76-5.5,2.16v-2
			h-3.65v18.55h3.78v-9.54c0-3.54,1.72-5.57,4.73-5.57c2.67,0,4.02,1.64,4.02,4.86v10.25h3.78v-9.54c0-3.54,1.72-5.57,4.73-5.57
			c2.67,0,4.02,1.64,4.02,4.86v10.25h3.78v-10.62C189.15,143.32,186.49,140.37,181.86,140.37"/>
		<path class="st1" d="M195.18,148.21c0.44-2.65,2.42-4.4,5.03-4.4c2.61,0,4.58,1.75,5.03,4.4H195.18z M200.21,140.37
			c-5.13,0-8.86,3.97-8.86,9.44c0,5.58,3.89,9.48,9.47,9.48c2.94,0,5.35-1.05,6.96-3.02l0.18-0.22l-2.15-2.64l-0.28,0.32
			c-1.16,1.35-2.72,2.03-4.62,2.03c-3.01,0-5.21-1.75-5.73-4.51h13.65l0.03-0.32c0.03-0.3,0.07-0.72,0.07-1.01
			C208.94,144.29,205.35,140.37,200.21,140.37"/>
		<path class="st1" d="M220.6,140.37c-2.38,0-4.39,0.78-5.75,2.21v-2.05h-3.65v18.55h3.78v-9.54c0-3.54,1.83-5.57,5.02-5.57
			c2.8,0,4.22,1.64,4.22,4.86v10.25h3.78v-10.62C227.99,143.4,225.23,140.37,220.6,140.37"/>
		<path class="st1" d="M240.01,154.65l-0.38,0.3c-0.62,0.49-1.39,0.76-2.15,0.76c-1.61,0-2.4-0.91-2.4-2.77v-9.06h4.96v-3.37h-4.89
			v-4.68h-3.78v17.15c0,3.77,2.28,6.11,5.95,6.11c1.49,0,2.79-0.4,3.68-1.12l0.2-0.16L240.01,154.65z"/>
	</g>
	<rect x="145.25" y="140.54" class="st1" width="3.78" height="18.55"/>
	<g>
		<path class="st1" d="M147.14,133.61c-1.48,0-2.67,1.2-2.67,2.67c0,1.47,1.2,2.67,2.67,2.67s2.67-1.2,2.67-2.67
			C149.82,134.8,148.62,133.61,147.14,133.61"/>
	</g>
</g>
</svg>
